<svg width="26" height="26" viewBox="0 0 26 26" fill="none" xmlns="http://www.w3.org/2000/svg">
<path d="M25.8869 10.4414C25.736 10.2899 25.4922 10.2899 25.3413 10.4414L14.8113 21.0163C14.0351 21.7958 12.9992 22.2247 11.8935 22.2247C10.7874 22.2247 9.75114 21.7958 8.9753 21.0163C8.19945 20.2368 7.77199 19.1965 7.77199 18.0857C7.77199 16.9753 8.19907 15.9346 8.9753 15.1554L19.505 4.5802C20.6226 3.45817 22.3772 3.52675 23.5863 4.74022C24.795 5.95408 24.8637 7.71655 23.7461 8.83897L13.8541 18.7734C13.3013 19.3286 12.4008 19.329 11.8468 18.7734C11.2936 18.2174 11.2936 17.3131 11.8468 16.7575L18.5478 10.028C18.6986 9.87654 18.6986 9.63168 18.5478 9.48019C18.3969 9.3287 18.1531 9.3287 18.0023 9.48019L11.3013 16.2093C10.4471 17.0671 10.4471 18.4627 11.3013 19.3208C12.1562 20.1794 13.5463 20.1779 14.3997 19.3208L24.292 9.38643C25.7206 7.95134 25.6519 5.71812 24.1322 4.19199C22.613 2.66624 20.3888 2.59688 18.9598 4.03197L8.42939 14.6072C7.50733 15.5328 7 16.768 7 18.0857C7 19.4034 7.50733 20.6389 8.42939 21.5645C9.35107 22.4905 10.581 23 11.8935 23C13.2052 23 14.4355 22.4905 15.3572 21.5645L25.8869 10.9893C26.0377 10.8378 26.0377 10.5925 25.8869 10.4414Z" fill="white"/>
</svg>
