<svg width="14" height="15" viewBox="0 0 14 15" fill="none" xmlns="http://www.w3.org/2000/svg">
<path d="M11.9494 6.05282L6.87213 6.03665L8.79631 0.522817C8.84482 0.377291 8.81248 0.199425 8.68312 0.0862379C8.52143 -0.0431189 8.27888 -0.0269493 8.14953 0.134747C7.40572 1.04024 6.66192 1.94574 5.93429 2.85124C4.44668 4.6784 2.95908 6.50557 1.47147 8.33273C1.42296 8.39741 1.39062 8.47826 1.39062 8.57528C1.39062 8.78548 1.55232 8.94718 1.76253 8.94718L6.83979 8.96335L4.9156 14.4772C4.86709 14.6227 4.89943 14.8006 5.02879 14.9138C5.19049 15.0431 5.43303 15.0269 5.56239 14.8653C6.33853 13.9112 7.08233 13.0219 7.82613 12.1326C9.32991 10.3216 10.8337 8.5106 12.2566 6.66727C12.3051 6.60259 12.3375 6.52174 12.3375 6.44089C12.3374 6.23069 12.1596 6.05282 11.9494 6.05282ZM7.24403 11.6313C6.95297 11.9871 6.64575 12.3428 6.3547 12.6985L7.74528 8.7208C7.80996 8.52677 7.71295 8.3004 7.50274 8.23572C7.45423 8.21955 7.40572 8.21955 7.35721 8.21955L2.57101 8.20338C3.89692 6.58642 5.20665 4.96946 6.53256 3.3525L7.37338 2.31764L5.9828 6.27919C5.91812 6.47323 6.01514 6.6996 6.22534 6.76428C6.27385 6.78045 6.32236 6.78045 6.37087 6.78045L11.1894 6.79662C9.91201 8.42975 8.5861 10.0305 7.24403 11.6313Z" fill="white"/>
<path d="M5.77255 1.00778C5.72404 0.797574 5.51384 0.668217 5.3198 0.716726C3.73518 1.07246 2.42544 1.94562 1.4876 3.126C0.549767 4.30638 0 5.79398 0 7.39477C0 8.656 0.339562 9.86872 0.970177 10.9197C1.60079 11.9708 2.49012 12.8439 3.60582 13.4422C3.79986 13.5392 4.02623 13.4745 4.12325 13.2805C4.22027 13.0865 4.15559 12.8601 3.96155 12.7631C2.97521 12.2295 2.1829 11.4533 1.61696 10.5155C1.06719 9.59383 0.759972 8.51047 0.759972 7.39477C0.759972 5.97184 1.24506 4.66211 2.08588 3.61108C2.91053 2.56006 4.09091 1.78392 5.4815 1.46053C5.6917 1.41202 5.82102 1.20181 5.77255 1.00778Z" fill="white"/>
<path d="M12.8224 3.90224C12.208 2.86738 11.3186 1.97806 10.2191 1.37978C10.0412 1.28276 9.7987 1.34744 9.70168 1.52531C9.60466 1.70317 9.66934 1.94572 9.84721 2.04274C10.8174 2.57633 11.6097 3.35247 12.1595 4.27414C12.7092 5.19581 13.0003 6.263 13.0003 7.3787C13.0003 8.8178 12.499 10.1437 11.6582 11.1947C10.8174 12.2458 9.62083 13.0219 8.21408 13.3291C8.00387 13.3776 7.87452 13.5717 7.92302 13.7819C7.97153 13.9921 8.16557 14.1214 8.37577 14.0729C9.94423 13.7172 11.2863 12.8602 12.2403 11.6636C13.1943 10.4833 13.7603 8.97949 13.7603 7.36253C13.7765 6.13364 13.4369 4.93709 12.8224 3.90224Z" fill="white"/>
</svg>
