<svg width="10" height="16" viewBox="0 0 10 16" fill="none" xmlns="http://www.w3.org/2000/svg">
<path d="M0.0332791 5.15484L0.267558 6.01653C0.276852 6.05221 0.293161 6.08569 0.315534 6.115C0.337906 6.1443 0.365894 6.16886 0.397862 6.18724C0.429829 6.20561 0.465137 6.21743 0.501724 6.22201C0.53831 6.22659 0.575442 6.22383 0.610952 6.2139L0.785859 6.16737C0.785859 6.16737 0.785859 6.1786 0.785859 6.18502L1.21751 14.2901C1.23637 14.6176 1.3799 14.9255 1.61863 15.1505C1.85736 15.3755 2.17317 15.5005 2.50123 15.5H7.82224C8.15029 15.5005 8.4661 15.3755 8.70483 15.1505C8.94356 14.9255 9.08709 14.6176 9.10596 14.2901L9.5344 6.18502C9.53616 6.14687 9.53025 6.10875 9.51702 6.07292C9.50379 6.03708 9.48351 6.00427 9.45737 5.97642C9.43111 5.94884 9.39948 5.92693 9.36444 5.91202C9.32939 5.89712 9.29167 5.88955 9.25358 5.88977H1.80962L9.55526 3.78928C9.62596 3.77199 9.68704 3.72762 9.72535 3.66572C9.76208 3.60091 9.77188 3.52427 9.75263 3.45231L9.51996 2.59061C9.48664 2.46655 9.4292 2.35027 9.35091 2.24842C9.27261 2.14658 9.17501 2.06117 9.06368 1.99709C8.95235 1.933 8.82947 1.89149 8.70209 1.87494C8.5747 1.85838 8.4453 1.86711 8.32128 1.90061L6.93166 2.2777L6.71503 1.4834C6.62263 1.14254 6.39864 0.852338 6.09231 0.676604C5.78597 0.500869 5.42239 0.453995 5.0815 0.546289L2.83499 1.15606C2.49455 1.24814 2.20454 1.4715 2.02856 1.77713C1.85258 2.08276 1.80501 2.44572 1.89627 2.78638L2.1113 3.58068L0.720068 3.95777C0.47069 4.02613 0.258491 4.19039 0.129812 4.41467C0.00113348 4.63896 -0.0335705 4.90505 0.0332791 5.15484ZM8.95191 6.45139L8.53631 14.2564C8.52685 14.4395 8.44752 14.6119 8.31466 14.7382C8.1818 14.8645 8.00554 14.935 7.82224 14.9352H2.4916C2.30829 14.935 2.13204 14.8645 1.99918 14.7382C1.86632 14.6119 1.78698 14.4395 1.77753 14.2564L1.36193 6.45139H8.95191ZM2.97941 1.69522L5.22592 1.08545C5.42295 1.03234 5.63299 1.05942 5.8101 1.16076C5.98722 1.2621 6.117 1.42945 6.17106 1.62622L6.38608 2.42854L6.05231 2.5184L5.84371 1.71768C5.82885 1.66363 5.8035 1.61303 5.76909 1.56878C5.73468 1.52453 5.69189 1.48748 5.64317 1.45977C5.59444 1.43205 5.54073 1.41421 5.48511 1.40725C5.42949 1.40029 5.37304 1.40436 5.31899 1.41922L3.07248 2.02898C2.9652 2.05839 2.87364 2.12851 2.81729 2.22442C2.76095 2.32033 2.74427 2.43445 2.77081 2.54247L2.98583 3.34479L2.65367 3.43465L2.43704 2.63233C2.38596 2.43619 2.41425 2.22782 2.51578 2.05239C2.61731 1.87697 2.78389 1.74864 2.97941 1.69522ZM5.51315 2.658L3.5282 3.19717L3.34848 2.54247L5.33343 2.00331L5.51315 2.658ZM8.46891 2.43817C8.57487 2.40962 8.68782 2.42413 8.78311 2.47855C8.87841 2.53296 8.94832 2.62285 8.97758 2.72861L9.13805 3.31912L0.736114 5.59932L0.575649 5.00881C0.56135 4.95613 0.557611 4.90114 0.564647 4.847C0.571684 4.79287 0.589357 4.74066 0.61665 4.69339C0.643942 4.64611 0.680315 4.6047 0.723675 4.57153C0.767035 4.53837 0.816527 4.5141 0.8693 4.50014L8.46891 2.43817Z" fill="white"/>
<path d="M5.43767 12.9213V7.99828C5.42877 7.93074 5.39562 7.86874 5.34441 7.82383C5.29319 7.77891 5.22739 7.75415 5.15927 7.75415C5.09114 7.75415 5.02535 7.77891 4.97413 7.82383C4.92291 7.86874 4.88976 7.93074 4.88086 7.99828V12.9213C4.88086 12.9958 4.91045 13.0672 4.96311 13.1199C5.01577 13.1726 5.0872 13.2021 5.16167 13.2021C5.23615 13.2021 5.30757 13.1726 5.36024 13.1199C5.4129 13.0672 5.44249 12.9958 5.44249 12.9213H5.43767Z" fill="white"/>
<path d="M3.11592 13.2021C3.15273 13.2011 3.18897 13.1928 3.22256 13.1777C3.25614 13.1626 3.28641 13.141 3.31162 13.1141C3.33682 13.0873 3.35647 13.0557 3.36942 13.0212C3.38238 12.9868 3.38839 12.9501 3.3871 12.9133L3.23948 7.99825C3.23842 7.96137 3.23012 7.92506 3.21503 7.89139C3.19994 7.85773 3.17837 7.82736 3.15155 7.80203C3.12473 7.7767 3.09319 7.7569 3.05871 7.74376C3.02424 7.73062 2.98752 7.7244 2.95064 7.72546C2.91376 7.72651 2.87745 7.73482 2.84379 7.7499C2.81012 7.76499 2.77975 7.78656 2.75442 7.81338C2.72909 7.8402 2.70929 7.87175 2.69615 7.90622C2.68302 7.94069 2.6768 7.97742 2.67785 8.01429L2.82708 12.939C2.83163 13.0117 2.86432 13.0799 2.91822 13.129C2.97213 13.1781 3.04303 13.2043 3.11592 13.2021Z" fill="white"/>
<path d="M7.20598 13.2021C7.27882 13.2021 7.34882 13.1739 7.40122 13.1233C7.45361 13.0727 7.4843 13.0037 7.48679 12.9309L7.63603 8.00624C7.63708 7.96936 7.63086 7.93264 7.61772 7.89816C7.60458 7.86369 7.58478 7.83214 7.55945 7.80532C7.53412 7.7785 7.50375 7.75693 7.47009 7.74185C7.43642 7.72676 7.40011 7.71845 7.36324 7.7174C7.32636 7.71635 7.28964 7.72257 7.25516 7.7357C7.22069 7.74884 7.18914 7.76864 7.16232 7.79397C7.1355 7.81931 7.11393 7.84967 7.09884 7.88334C7.08376 7.917 7.07545 7.95331 7.0744 7.99019L6.92517 12.9132C6.9241 12.9501 6.93031 12.9869 6.94344 13.0213C6.95657 13.0558 6.97637 13.0874 7.00171 13.1142C7.02704 13.141 7.05741 13.1626 7.09109 13.1777C7.12476 13.1927 7.16108 13.201 7.19796 13.2021H7.20598Z" fill="white"/>
</svg>
