<svg width="16" height="18" viewBox="0 0 16 18" fill="none" xmlns="http://www.w3.org/2000/svg">
<path d="M7.5165 3.87964C4.96886 3.87964 2.88745 5.96104 2.88745 8.50869C2.88745 9.84079 3.47024 11.1229 4.45267 11.9888C5.18532 12.7215 5.11872 14.2867 5.10207 14.3033C5.10207 14.3866 5.11872 14.4532 5.18532 14.5198C5.23528 14.5697 5.31853 14.603 5.38514 14.603H9.63121C9.71446 14.603 9.78107 14.5697 9.83102 14.5198C9.88098 14.4698 9.91428 14.3866 9.91428 14.3033C9.91428 14.2867 9.83102 12.7215 10.5637 11.9888C10.5803 11.9721 10.597 11.9555 10.6136 11.9388C11.5794 11.0563 12.1455 9.80748 12.1455 8.50869C12.1455 5.96104 10.0641 3.87964 7.5165 3.87964ZM10.1807 11.5559C10.164 11.5725 10.1307 11.6058 10.1307 11.6225C9.48135 12.3218 9.36479 13.4708 9.34814 14.0202H5.66821C5.65156 13.4708 5.535 12.2719 4.83565 11.5559C3.95313 10.7899 3.43694 9.67427 3.43694 8.49204C3.43694 6.24412 5.25193 4.42913 7.49985 4.42913C9.74777 4.42913 11.5628 6.24412 11.5628 8.49204C11.5628 9.67427 11.0632 10.7899 10.1807 11.5559Z" fill="white"/>
<path d="M7.49987 5.06201C7.35001 5.06201 7.2168 5.19522 7.2168 5.34508C7.2168 5.49494 7.35001 5.62815 7.49987 5.62815C9.18164 5.62815 10.5304 6.99356 10.5304 8.65868C10.5304 8.80854 10.6636 8.94175 10.8135 8.94175C10.9633 8.94175 11.0965 8.80854 11.0965 8.65868C11.1132 6.67718 9.49802 5.06201 7.49987 5.06201Z" fill="white"/>
<path d="M9.3482 14.9194H5.65162C5.26864 14.9194 4.95227 15.2358 4.95227 15.6188C4.95227 16.0018 5.26864 16.3181 5.65162 16.3181H9.33155C9.73118 16.3015 10.0476 16.0018 10.0476 15.6188C10.0476 15.2358 9.73118 14.9194 9.3482 14.9194ZM9.3482 15.7353H5.65162C5.58502 15.7353 5.51841 15.6854 5.51841 15.6021C5.51841 15.5189 5.56837 15.4689 5.65162 15.4689H9.33155C9.39815 15.4689 9.46476 15.5189 9.46476 15.6021C9.46476 15.6854 9.4148 15.7353 9.3482 15.7353Z" fill="white"/>
<path d="M8.79866 16.6013H6.20106C5.81808 16.6013 5.50171 16.9177 5.50171 17.3007C5.50171 17.6837 5.81808 18 6.20106 18H8.79866C9.18164 18 9.49801 17.6837 9.49801 17.3007C9.49801 16.901 9.18164 16.6013 8.79866 16.6013ZM8.79866 17.4172H6.20106C6.13446 17.4172 6.06785 17.3673 6.06785 17.284C6.06785 17.2008 6.11781 17.1508 6.20106 17.1508H8.79866C8.86526 17.1508 8.93187 17.2008 8.93187 17.284C8.93187 17.3673 8.86526 17.4172 8.79866 17.4172Z" fill="white"/>
<path d="M7.49987 2.49769C7.66638 2.49769 7.78294 2.36448 7.78294 2.21462V0.283071C7.78294 0.13321 7.64973 0 7.49987 0C7.35001 0 7.2168 0.13321 7.2168 0.283071V2.21462C7.2168 2.36448 7.35001 2.49769 7.49987 2.49769Z" fill="white"/>
<path d="M12.2122 1.43199C12.079 1.33208 11.9125 1.38203 11.8292 1.49859L10.7635 3.09711C10.6636 3.23032 10.6969 3.41348 10.8301 3.49674C10.8801 3.53004 10.93 3.54669 10.98 3.54669C11.0799 3.54669 11.1632 3.49674 11.2131 3.41348L12.2788 1.81496C12.3787 1.69841 12.3454 1.51524 12.2122 1.43199Z" fill="white"/>
<path d="M4.11965 3.48002C4.16961 3.48002 4.21956 3.46337 4.26951 3.43007C4.40272 3.34681 4.43603 3.16365 4.35277 3.03044L3.32039 1.41527C3.23713 1.28206 3.05397 1.24876 2.92076 1.33201C2.78755 1.41527 2.75425 1.59843 2.8375 1.73164L3.86988 3.34681C3.93649 3.44672 4.01974 3.48002 4.11965 3.48002Z" fill="white"/>
<path d="M2.10486 5.24524L0.423086 4.32942C0.289876 4.26282 0.106712 4.31277 0.0401074 4.44598C-0.0431489 4.57919 0.00680483 4.76235 0.156666 4.82896L1.83844 5.74478C1.8884 5.76143 1.9217 5.77808 1.97165 5.77808C2.07156 5.77808 2.17147 5.72813 2.22142 5.62822C2.28803 5.49501 2.23807 5.31185 2.10486 5.24524Z" fill="white"/>
<path d="M14.9762 4.44598C14.9096 4.31277 14.7265 4.26282 14.5933 4.32942L12.8948 5.24524C12.7616 5.31185 12.7117 5.49501 12.7783 5.62822C12.8282 5.72813 12.9281 5.77808 13.028 5.77808C13.078 5.77808 13.128 5.76143 13.1613 5.74478L14.8597 4.82896C14.9929 4.76235 15.0428 4.57919 14.9762 4.44598Z" fill="white"/>
</svg>
