<svg width="17" height="17" viewBox="0 0 17 17" fill="none" xmlns="http://www.w3.org/2000/svg">
<path d="M11.2206 14.2118L11.2189 14.2147C10.9317 14.6723 10.6964 15.1214 10.5152 15.5618C9.96941 14.229 8.93046 12.8205 7.3623 11.6441C6.70933 11.1516 6.03757 10.7589 5.35552 10.4783C7.01601 9.80877 8.55307 8.60074 9.61057 7.06691C9.9825 6.52959 10.2853 5.9878 10.5128 5.43246C11.1337 6.95297 12.3483 8.4305 13.8407 9.48667C14.4219 9.90008 15.024 10.2367 15.6432 10.4878C13.9048 11.2234 12.1775 12.7018 11.2206 14.2118Z" stroke="#0F1827" stroke-width="1.5"/>
<path d="M3.80682 5.44722L3.80682 5.44722L3.80563 5.4491C3.69179 5.63054 3.59247 5.81014 3.50835 5.9878C3.18992 5.31467 2.6472 4.62355 1.86827 4.03922C1.57595 3.81875 1.27581 3.63411 0.970368 3.48956C1.8029 3.10916 2.56382 2.484 3.10019 1.70606C3.25883 1.47687 3.39499 1.24545 3.50676 1.00949C3.86867 1.77499 4.49325 2.50201 5.24322 3.03278C5.4987 3.21452 5.76218 3.36956 6.03252 3.4952C5.14656 3.92226 4.29499 4.67683 3.80682 5.44722Z" stroke="#0F1827"/>
</svg>
