<svg width="14" height="14" viewBox="0 0 14 14" fill="none" xmlns="http://www.w3.org/2000/svg">
<path d="M8.26008 3.12524C7.58129 3.12802 6.92301 3.35813 6.39031 3.77884C5.85762 4.19954 5.48124 4.78659 5.32125 5.44626L3.57105 4.71384C3.54598 4.70334 3.51907 4.69793 3.49189 4.69793C3.46471 4.69793 3.43781 4.70334 3.41273 4.71384L0.125859 6.08939C0.0885848 6.10505 0.05676 6.13136 0.0343716 6.16502C0.0119832 6.19869 2.67209e-05 6.23821 0 6.27864V9.69536C9.23639e-06 9.71066 0.00173881 9.72592 0.00515621 9.74083C0.0362109 9.87794 0.798984 13.1015 3.47156 13.3688C3.48513 13.3701 3.49878 13.3701 3.51234 13.3688C6.1848 13.1017 6.94758 9.87806 6.97863 9.74095C6.98206 9.72599 6.98379 9.7107 6.98379 9.69536V8.88677C7.39388 9.07794 7.84166 9.17459 8.29409 9.16959C8.74652 9.1646 9.19206 9.05808 9.59783 8.8579C10.0036 8.65773 10.3592 8.369 10.6385 8.01302C10.9178 7.65705 11.1136 7.2429 11.2115 6.80115C11.3093 6.3594 11.3067 5.90132 11.2039 5.4607C11.1011 5.02008 10.9007 4.60817 10.6174 4.25536C10.3341 3.90254 9.97524 3.61784 9.56724 3.42224C9.15924 3.22664 8.71254 3.12515 8.26008 3.12524ZM6.57363 9.67075C6.50543 9.9411 5.7491 12.7167 3.4916 12.9587C1.23469 12.7167 0.478828 9.94146 0.410156 9.67075V6.41517L3.49195 5.12505L6.57398 6.41481L6.57363 9.67075ZM8.26008 8.75997C7.81317 8.7598 7.37376 8.6451 6.98379 8.42681V6.27864C6.98377 6.2382 6.9718 6.19866 6.94939 6.16498C6.92698 6.13131 6.89512 6.10501 6.85781 6.08939L5.70715 5.60786C5.80939 5.12531 6.04623 4.6816 6.39024 4.3281C6.73425 3.9746 7.17136 3.72578 7.65095 3.61046C8.13053 3.49514 8.63298 3.51802 9.1001 3.67647C9.56721 3.83492 9.97989 4.12245 10.2903 4.50576C10.6008 4.88907 10.7963 5.35248 10.8542 5.84233C10.9122 6.33217 10.8302 6.82841 10.6177 7.27357C10.4053 7.71873 10.0711 8.09461 9.65383 8.35767C9.23658 8.62073 8.75334 8.76022 8.26008 8.75997Z" fill="white"/>
<path d="M8.26001 2.36849C8.3144 2.36849 8.36656 2.34688 8.40502 2.30842C8.44348 2.26996 8.46509 2.2178 8.46509 2.16341V0.835205C8.46509 0.780815 8.44348 0.728653 8.40502 0.690193C8.36656 0.651733 8.3144 0.630127 8.26001 0.630127C8.20562 0.630127 8.15346 0.651733 8.115 0.690193C8.07654 0.728653 8.05493 0.780815 8.05493 0.835205V2.16341C8.05493 2.2178 8.07654 2.26996 8.115 2.30842C8.15346 2.34688 8.20562 2.36849 8.26001 2.36849Z" fill="white"/>
<path d="M8.26001 9.92725C8.20562 9.92725 8.15346 9.94885 8.115 9.98731C8.07654 10.0258 8.05493 10.0779 8.05493 10.1323V11.4605C8.05493 11.5149 8.07654 11.5671 8.115 11.6055C8.15346 11.644 8.20562 11.6656 8.26001 11.6656C8.3144 11.6656 8.36656 11.644 8.40502 11.6055C8.44348 11.5671 8.46509 11.5149 8.46509 11.4605V10.1323C8.46509 10.0779 8.44348 10.0258 8.40502 9.98731C8.36656 9.94885 8.3144 9.92725 8.26001 9.92725Z" fill="white"/>
<path d="M13.5728 5.94287H12.2444C12.19 5.94287 12.1378 5.96448 12.0994 6.00294C12.0609 6.0414 12.0393 6.09356 12.0393 6.14795C12.0393 6.20234 12.0609 6.2545 12.0994 6.29296C12.1378 6.33142 12.19 6.35303 12.2444 6.35303H13.5726C13.627 6.35303 13.6791 6.33142 13.7176 6.29296C13.7561 6.2545 13.7777 6.20234 13.7777 6.14795C13.7777 6.09356 13.7561 6.0414 13.7176 6.00294C13.6791 5.96448 13.627 5.94287 13.5726 5.94287H13.5728Z" fill="white"/>
<path d="M11.0777 3.53562C11.1047 3.53567 11.1313 3.53038 11.1562 3.52006C11.1811 3.50974 11.2037 3.4946 11.2227 3.4755L12.1618 2.53625C12.1809 2.51721 12.196 2.49461 12.2063 2.46974C12.2166 2.44486 12.2219 2.41821 12.2219 2.39129C12.2219 2.36436 12.2166 2.33771 12.2063 2.31283C12.196 2.28796 12.1809 2.26536 12.1618 2.24632C12.1428 2.22729 12.1202 2.21219 12.0953 2.20188C12.0705 2.19158 12.0438 2.18628 12.0169 2.18628C11.9899 2.18628 11.9633 2.19158 11.9384 2.20188C11.9135 2.21219 11.8909 2.22729 11.8719 2.24632L10.9328 3.18546C10.9041 3.21416 10.8846 3.2507 10.8767 3.29047C10.8688 3.33024 10.8729 3.37145 10.8884 3.40891C10.9039 3.44638 10.9302 3.4784 10.9639 3.50095C10.9976 3.52351 11.0372 3.53557 11.0777 3.53562Z" fill="white"/>
<path d="M11.2227 8.82039C11.2038 8.80081 11.1811 8.78519 11.1561 8.77445C11.1311 8.7637 11.1042 8.75805 11.0769 8.75782C11.0497 8.75759 11.0227 8.76278 10.9975 8.7731C10.9723 8.78342 10.9494 8.79865 10.9302 8.81791C10.9109 8.83717 10.8957 8.86007 10.8854 8.88527C10.8751 8.91048 10.8699 8.93748 10.8701 8.96471C10.8704 8.99194 10.876 9.01885 10.8868 9.04387C10.8975 9.06889 10.9132 9.09152 10.9328 9.11043L11.8719 10.0496C11.8909 10.0686 11.9135 10.0837 11.9384 10.094C11.9633 10.1043 11.9899 10.1096 12.0169 10.1096C12.0438 10.1096 12.0704 10.1043 12.0953 10.094C12.1202 10.0837 12.1428 10.0686 12.1618 10.0496C12.1809 10.0305 12.196 10.0079 12.2063 9.98306C12.2166 9.95819 12.2219 9.93153 12.2219 9.90461C12.2219 9.87769 12.2166 9.85103 12.2063 9.82616C12.196 9.80128 12.1809 9.77869 12.1618 9.75965L11.2227 8.82039Z" fill="white"/>
<path d="M5.29749 3.47541C5.33595 3.51395 5.38815 3.53563 5.4426 3.53569C5.49704 3.53574 5.54928 3.51417 5.58782 3.4757C5.62636 3.43724 5.64804 3.38505 5.6481 3.3306C5.64815 3.27615 5.62658 3.22391 5.58812 3.18537L4.64827 2.24623C4.62936 2.22664 4.60673 2.21101 4.58171 2.20026C4.5567 2.18951 4.52979 2.18384 4.50256 2.1836C4.47533 2.18336 4.44832 2.18854 4.42311 2.19885C4.39791 2.20916 4.37501 2.22438 4.35575 2.24363C4.33649 2.26288 4.32126 2.28578 4.31094 2.31098C4.30063 2.33618 4.29543 2.36318 4.29566 2.39041C4.29589 2.41764 4.30154 2.44455 4.31229 2.46958C4.32303 2.4946 4.33865 2.51723 4.35823 2.53615L5.29749 3.47541Z" fill="white"/>
<path d="M3.41272 5.98416L1.17444 6.92072C1.13718 6.93636 1.10536 6.96265 1.08297 6.99629C1.06058 7.02994 1.04862 7.06945 1.04858 7.10986V9.53224C1.04859 9.54754 1.05032 9.5628 1.05374 9.57771C1.07542 9.67298 1.60522 11.9119 3.4712 12.0984C3.48476 12.0998 3.49843 12.0998 3.51198 12.0984C5.37819 11.9119 5.908 9.67298 5.92956 9.57806C5.93304 9.56316 5.93477 9.5479 5.93472 9.53259V7.10986C5.93471 7.06944 5.92276 7.02992 5.90037 6.99627C5.87798 6.96262 5.84614 6.93633 5.80886 6.92072L3.57058 5.98416C3.54559 5.97367 3.51875 5.96826 3.49165 5.96826C3.46455 5.96826 3.43772 5.97367 3.41272 5.98416ZM5.52456 7.24603V9.50775C5.46937 9.72244 4.96124 11.5256 3.49194 11.6886C2.02265 11.5251 1.5144 9.72197 1.45909 9.50775V7.24603L3.49194 6.39525L5.52456 7.24603Z" fill="white"/>
</svg>
