<svg width="152" height="23" viewBox="0 0 152 23" fill="none" xmlns="http://www.w3.org/2000/svg">
<path d="M102.68 9.80761L107.501 2.95242H114.36L107.736 12.2753L114.87 22.5385H107.344L102.601 15.6833L100.515 12.8178L102.68 9.80761Z" fill="url(#paint0_linear_287_977)"/>
<path d="M13.8198 10.6628H18.9154C18.255 6.50457 14.5461 3.61913 9.81677 3.61913C4.12859 3.61913 0 7.53721 0 12.9355C0 18.3338 4.12859 22.2518 9.81677 22.2518C14.4249 22.2518 18.2122 19.2865 18.9097 15.17H13.823C13.1538 16.7671 11.5955 17.7919 9.81677 17.7919C7.1114 17.7919 5.07126 15.7041 5.07126 12.9355C5.07126 10.1669 7.1114 8.07909 9.81677 8.07909C11.5878 8.07909 13.1448 9.08884 13.8198 10.6628Z" fill="#0F1827"/>
<path d="M29.7327 3.52532C26.9298 3.52532 24.3687 4.48048 22.521 6.21456C20.6826 7.9404 19.6702 10.3272 19.6702 12.9355C19.6702 18.3882 23.902 22.3456 29.7327 22.3456C32.5356 22.3456 35.0969 21.3905 36.9445 19.6564C38.7829 17.9305 39.7954 15.5437 39.7954 12.9355C39.7954 7.48279 35.5635 3.52532 29.7327 3.52532ZM29.7327 17.5841C27.0809 17.5841 25.0813 15.5857 25.0813 12.9355C25.0813 10.2418 27.0375 8.28682 29.7327 8.28682C32.3845 8.28682 34.3843 10.2852 34.3843 12.9355C34.3843 15.5857 32.3845 17.5841 29.7327 17.5841Z" fill="#0F1827"/>
<path d="M50.2495 8.23114C52.6125 8.23114 54.2291 9.94984 54.2725 12.5079L54.2726 21.8719H59.4198V11.4916C59.4198 6.78283 56.2999 3.61913 51.6562 3.61913C49.5564 3.61913 47.7202 4.32606 46.3461 5.66335L45.3901 6.59378V3.99906H40.851V21.8719H45.9222V12.5174C45.9222 10.0739 47.7825 8.23114 50.2495 8.23114Z" fill="#0F1827"/>
<path d="M69.8612 8.23114C72.2241 8.23114 73.8408 9.94984 73.8843 12.5079L73.8844 21.8719H79.0316V11.4916C79.0316 6.78283 75.9116 3.61913 71.2679 3.61913C69.1681 3.61913 67.3319 4.32606 65.9578 5.66335L65.0018 6.59378V3.99906H60.4626V21.8719H65.5339V12.5174C65.5339 10.0739 67.3942 8.23114 69.8612 8.23114Z" fill="#0F1827"/>
<path d="M99.6092 12.8976C99.6092 7.52128 95.5766 3.61913 90.0207 3.61913C87.3078 3.61913 84.8134 4.55853 82.9969 6.26404C81.1469 8.00124 80.1279 10.4379 80.1279 13.1255C80.1279 18.5842 84.1035 22.2518 90.0207 22.2518C93.5155 22.2518 97.7219 20.6638 98.8743 17.1839H93.6871C92.8783 17.9817 91.5755 18.4378 90.0966 18.4378C87.5776 18.4378 85.5872 16.9879 85.0257 14.7438L84.8508 14.0445H99.542C99.5872 13.6939 99.6092 13.3169 99.6092 12.8976ZM84.8821 11.5223L85.1106 10.7916C85.739 8.78273 87.651 7.43298 89.8685 7.43298C92.2272 7.43298 94.0205 8.68967 94.6656 10.7947L94.8886 11.5223H84.8821Z" fill="#0F1827"/>
<path d="M125.964 22.9621C127.174 22.9621 128.889 22.8267 130.476 22.6069V17.998C129.124 18.1641 128.113 18.2385 127.219 18.2385C125.049 18.2385 124.164 17.4861 124.164 15.6418V9.16908H130.476V4.55963H124.164V0H119.552V1.31678C119.552 3.34727 118.338 4.55962 116.307 4.55962H114.761V9.16908H118.905V17.0855C118.905 21.0399 121.214 22.9621 125.964 22.9621Z" fill="#0F1827"/>
<path d="M151.417 22.6201V18.1625H149.401V11.5C149.401 7.05306 146.258 4.17971 141.392 4.17971C136.802 4.17971 133.39 6.57749 132.631 10.3091H137.51C138.009 8.95439 139.305 8.18115 141.088 8.18115C143.074 8.18115 144.409 9.08739 144.409 10.4362C144.409 11.9426 142.495 12.2672 140.623 12.3861C134.658 12.7494 131.634 14.6756 131.634 18.1116C131.634 21.1725 133.903 23 137.704 23C140.321 23 142.818 22.1507 144.384 20.7281L145.169 20.0151V22.6201L151.417 22.6201ZM144.675 14.6918C144.675 17.085 142.132 19.2644 139.339 19.2644C137.855 19.2644 136.969 18.5635 136.969 17.3894C136.969 15.4267 139.108 14.992 140.972 14.8326L140.973 14.8324C142.418 14.7152 143.647 14.2898 143.93 14.0847L144.675 13.543V14.6918Z" fill="#0F1827"/>
<defs>
<linearGradient id="paint0_linear_287_977" x1="100.515" y1="12.7455" x2="114.87" y2="12.7455" gradientUnits="userSpaceOnUse">
<stop stop-color="#F05976"/>
<stop offset="1" stop-color="#8255A1"/>
</linearGradient>
</defs>
</svg>
