<svg width="17" height="15" viewBox="0 0 17 15" fill="none" xmlns="http://www.w3.org/2000/svg">
<path d="M16.5693 12.4588L9.86526 0.846963C9.71655 0.589448 9.50268 0.375611 9.24514 0.22694C8.9876 0.0782683 8.69547 0 8.3981 0C8.10073 0 7.8086 0.0782683 7.55106 0.22694C7.29352 0.375611 7.07965 0.589448 6.93094 0.846963L0.22688 12.4588C0.0782288 12.7164 -1.88767e-05 13.0085 3.41583e-09 13.3059C1.88835e-05 13.6032 0.0783035 13.8954 0.226988 14.1529C0.375672 14.4104 0.589518 14.6243 0.847036 14.773C1.10455 14.9217 1.39667 15 1.69404 15H15.1022C15.3995 15 15.6916 14.9217 15.9492 14.773C16.2067 14.6243 16.4205 14.4104 16.5692 14.1529C16.7179 13.8954 16.7962 13.6032 16.7962 13.3059C16.7962 13.0085 16.718 12.7164 16.5693 12.4588ZM16.024 13.838C15.9314 14.0006 15.7972 14.1356 15.6352 14.2291C15.4732 14.3226 15.2892 14.3714 15.1022 14.3702H1.69404C1.50722 14.3702 1.3237 14.321 1.16191 14.2276C1.00013 14.1342 0.865777 13.9998 0.772364 13.838C0.678951 13.6762 0.629763 13.4927 0.629744 13.3059C0.629724 13.1191 0.678873 12.9355 0.772252 12.7737L7.47631 1.16184C7.56975 1.00006 7.70412 0.865711 7.86593 0.772308C8.02773 0.678904 8.21127 0.629732 8.3981 0.629732C8.58493 0.629732 8.76847 0.678904 8.93028 0.772308C9.09208 0.865711 9.22645 1.00006 9.31989 1.16184L16.024 12.7737C16.1184 12.9351 16.1682 13.1188 16.1682 13.3059C16.1682 13.4929 16.1184 13.6766 16.024 13.838Z" fill="white"/>
<path d="M8.4853 4.25854H8.31077C8.02055 4.25883 7.7423 4.37423 7.53707 4.57943C7.33184 4.78462 7.2164 5.06285 7.21606 5.35307V9.07944C7.2164 9.36968 7.33184 9.64792 7.53706 9.85315C7.74229 10.0584 8.02054 10.1738 8.31077 10.1741H8.4853C8.77553 10.1738 9.05378 10.0584 9.259 9.85315C9.46423 9.64792 9.57967 9.36968 9.58 9.07944V5.35307C9.57967 5.06285 9.46422 4.78462 9.25899 4.57943C9.05376 4.37423 8.77551 4.25883 8.4853 4.25854ZM8.95024 9.07944C8.9501 9.20271 8.90107 9.32089 8.81391 9.40805C8.72674 9.49521 8.60857 9.54424 8.4853 9.54439H8.31077C8.1875 9.54424 8.06932 9.49521 7.98216 9.40805C7.895 9.32089 7.84597 9.20271 7.84582 9.07944V5.35307C7.84597 5.22982 7.895 5.11166 7.98217 5.02452C8.06934 4.93739 8.18752 4.8884 8.31077 4.8883H8.4853C8.60855 4.8884 8.72673 4.93739 8.8139 5.02452C8.90106 5.11166 8.9501 5.22982 8.95024 5.35307V9.07944Z" fill="white"/>
<path d="M8.39803 10.7656C8.16426 10.7656 7.93574 10.8349 7.74137 10.9648C7.54699 11.0947 7.3955 11.2793 7.30604 11.4953C7.21658 11.7113 7.19317 11.9489 7.23878 12.1782C7.28438 12.4075 7.39695 12.6181 7.56226 12.7834C7.72756 12.9487 7.93816 13.0612 8.16744 13.1069C8.39672 13.1525 8.63438 13.1291 8.85035 13.0396C9.06633 12.9501 9.25093 12.7986 9.38081 12.6043C9.51068 12.4099 9.58 12.1814 9.58 11.9476C9.57962 11.6342 9.45497 11.3338 9.23339 11.1122C9.01181 10.8907 8.71139 10.766 8.39803 10.7656ZM8.39803 12.5003C8.28882 12.5003 8.18205 12.468 8.09124 12.4073C8.00043 12.3466 7.92965 12.2604 7.88786 12.1595C7.84606 12.0586 7.83513 11.9475 7.85644 11.8404C7.87774 11.7333 7.93033 11.6349 8.00756 11.5577C8.08479 11.4804 8.18319 11.4278 8.2903 11.4065C8.39742 11.3852 8.50845 11.3962 8.60936 11.438C8.71026 11.4798 8.7965 11.5505 8.85718 11.6413C8.91786 11.7322 8.95024 11.8389 8.95024 11.9481C8.9501 12.0945 8.89188 12.2349 8.78835 12.3384C8.68482 12.442 8.54445 12.5002 8.39803 12.5003Z" fill="white"/>
</svg>
