<svg width="19" height="20" viewBox="0 0 19 20" fill="none" xmlns="http://www.w3.org/2000/svg">
<path d="M9.66675 7.49998C7.82508 7.49998 7.16675 8.15831 7.16675 9.99998C7.16675 11.8416 7.825 12.5 9.66667 12.5C11.5083 12.5 12.1667 11.8416 12.1667 9.99998C12.1667 8.15831 11.5084 7.49998 9.66675 7.49998ZM17.1167 9.16665C16.7333 5.69165 13.975 2.93331 10.5 2.54998V0.833313H8.83333V2.54998C5.35833 2.93331 2.6 5.69165 2.21667 9.16665H0.5V10.8333H2.21667C2.6 14.3083 5.35833 17.0666 8.83333 17.45V19.1666H10.5V17.45C13.975 17.0666 16.7333 14.3083 17.1167 10.8333H18.8333V9.16665H17.1167ZM9.66667 15.8333C6.44167 15.8333 3.83333 13.225 3.83333 9.99998C3.83333 6.77498 6.44167 4.16665 9.66667 4.16665C12.8917 4.16665 15.5 6.77498 15.5 9.99998C15.5 13.225 12.8917 15.8333 9.66667 15.8333Z" fill="#E5E5E5"/>
</svg>
