<svg width="15" height="16" viewBox="0 0 15 16" fill="none" xmlns="http://www.w3.org/2000/svg">
<path d="M7.50032 0.5C6.01695 0.499937 4.56687 0.93975 3.33346 1.76382C2.10005 2.58789 1.13871 3.75921 0.570999 5.12965C0.00329251 6.50009 -0.145278 8.0081 0.144075 9.46298C0.433428 10.9179 1.14771 12.2543 2.19659 13.3032C3.24547 14.3521 4.58184 15.0664 6.03671 15.3559C7.49157 15.6453 8.99959 15.4968 10.3701 14.9291C11.7405 14.3615 12.9119 13.4002 13.736 12.1668C14.5601 10.9334 15 9.48337 15 8C14.9979 6.01158 14.2071 4.10521 12.8011 2.69916C11.3951 1.2931 9.48874 0.502208 7.50032 0.5ZM7.50032 14.9385C6.128 14.9386 4.78648 14.5317 3.64541 13.7693C2.50434 13.0069 1.61496 11.9233 1.08975 10.6555C0.564547 9.38763 0.427096 7.99252 0.694783 6.64656C0.96247 5.3006 1.62327 4.06425 2.59363 3.09385C3.56398 2.12345 4.8003 1.46259 6.14625 1.19484C7.4922 0.927092 8.88731 1.06448 10.1552 1.58963C11.423 2.11478 12.5067 3.0041 13.2691 4.14514C14.0316 5.28618 14.4385 6.62768 14.4385 8C14.4364 9.8395 13.7047 11.6031 12.404 12.9038C11.1033 14.2046 9.33982 14.9363 7.50032 14.9385Z" fill="white"/>
<path d="M7.50041 3.49463C6.86837 3.49449 6.25422 3.70456 5.75467 4.09177C5.25512 4.47898 4.89853 5.02134 4.74106 5.63345C4.6827 5.86959 4.71997 6.11923 4.84477 6.32802C4.96956 6.53682 5.17177 6.68787 5.40739 6.7483C5.64301 6.80874 5.89297 6.77366 6.10285 6.6507C6.31273 6.52775 6.46556 6.32687 6.52806 6.09179C6.57481 5.91017 6.67155 5.74529 6.8073 5.61588C6.94304 5.48647 7.11236 5.39772 7.29602 5.35972C7.47967 5.32171 7.67031 5.33596 7.84627 5.40086C8.02223 5.46576 8.17647 5.57871 8.29146 5.72686C8.40645 5.87502 8.47759 6.05246 8.49681 6.23902C8.51602 6.42558 8.48253 6.61379 8.40014 6.78227C8.31775 6.95075 8.18977 7.09276 8.03073 7.19215C7.87169 7.29155 7.68796 7.34436 7.50041 7.34458C7.25585 7.34487 7.02139 7.44216 6.84846 7.61509C6.67553 7.78802 6.57825 8.02248 6.57795 8.26704C6.57799 8.28258 6.5789 8.29812 6.58068 8.31356C6.57895 8.32917 6.57804 8.34486 6.57795 8.36057V9.37431C6.57795 9.61896 6.67514 9.85359 6.84814 10.0266C7.02113 10.1996 7.25576 10.2968 7.50041 10.2968C7.74506 10.2968 7.9797 10.1996 8.15269 10.0266C8.32569 9.85359 8.42287 9.61896 8.42287 9.37431V9.03308C9.06072 8.81511 9.60048 8.3778 9.94601 7.79905C10.2915 7.22029 10.4204 6.53767 10.3097 5.87278C10.1989 5.20788 9.85577 4.60388 9.3413 4.16836C8.82683 3.73285 8.17447 3.49409 7.50041 3.49463ZM8.07154 8.55244C8.0113 8.56807 7.95795 8.60324 7.91986 8.65245C7.88177 8.70167 7.86109 8.76213 7.86106 8.82436V9.37431C7.86106 9.47004 7.82302 9.56185 7.75533 9.62955C7.68764 9.69724 7.59583 9.73527 7.50009 9.73527C7.40436 9.73527 7.31255 9.69724 7.24485 9.62955C7.17716 9.56185 7.13913 9.47004 7.13913 9.37431V8.37051C7.14073 8.35864 7.14218 8.34677 7.14298 8.33474C7.1441 8.3208 7.1441 8.3068 7.14298 8.29286C7.14293 8.28411 7.14163 8.27542 7.13913 8.26704C7.13922 8.17127 7.17732 8.07946 7.24506 8.01178C7.31281 7.94409 7.40465 7.90607 7.50041 7.90607C7.79282 7.90585 8.0793 7.82363 8.32732 7.66875C8.57535 7.51388 8.77497 7.29256 8.90352 7.02993C9.03207 6.7673 9.0844 6.47388 9.05457 6.183C9.02473 5.89212 8.91392 5.61544 8.73473 5.38437C8.55553 5.15331 8.31513 4.97712 8.04084 4.87583C7.76654 4.77453 7.46933 4.75219 7.18296 4.81133C6.8966 4.87047 6.63256 5.00873 6.42083 5.2104C6.2091 5.41207 6.05817 5.66908 5.98517 5.95222C5.97459 5.99934 5.95465 6.04386 5.92654 6.08313C5.89843 6.1224 5.86272 6.15563 5.82154 6.18085C5.78035 6.20606 5.73452 6.22275 5.68676 6.22993C5.639 6.2371 5.59029 6.23462 5.54351 6.22262C5.49673 6.21062 5.45283 6.18935 5.41442 6.16008C5.37601 6.1308 5.34387 6.09411 5.31991 6.05218C5.29594 6.01026 5.28064 5.96394 5.2749 5.91599C5.26916 5.86804 5.27311 5.81942 5.28651 5.77303C5.38636 5.38229 5.58782 5.02494 5.87042 4.73723C6.15303 4.44952 6.50672 4.2417 6.8956 4.13487C7.28449 4.02803 7.69471 4.02599 8.08464 4.12894C8.47456 4.2319 8.83031 4.43618 9.11577 4.72106C9.40122 5.00594 9.60623 5.36128 9.70997 5.751C9.81371 6.14071 9.81249 6.55094 9.70645 6.94004C9.6004 7.32914 9.39329 7.68325 9.10615 7.96643C8.81902 8.24962 8.46207 8.45179 8.07154 8.55244Z" fill="white"/>
<path d="M7.494 10.8538C7.31276 10.8538 7.13559 10.9075 6.9849 11.0082C6.8342 11.1089 6.71675 11.252 6.64739 11.4194C6.57803 11.5869 6.55989 11.7711 6.59524 11.9489C6.6306 12.1267 6.71788 12.2899 6.84603 12.4181C6.97419 12.5462 7.13747 12.6335 7.31523 12.6689C7.49298 12.7042 7.67723 12.6861 7.84468 12.6167C8.01212 12.5474 8.15524 12.4299 8.25593 12.2792C8.35662 12.1285 8.41036 11.9514 8.41036 11.7701C8.41007 11.5272 8.31343 11.2943 8.14164 11.1225C7.96985 10.9507 7.73694 10.8541 7.494 10.8538ZM7.494 12.125C7.42381 12.125 7.35521 12.1042 7.29685 12.0652C7.23849 12.0262 7.19301 11.9708 7.16615 11.9059C7.13929 11.8411 7.13226 11.7697 7.14595 11.7009C7.15965 11.6321 7.19344 11.5688 7.24307 11.5192C7.2927 11.4696 7.35593 11.4358 7.42477 11.4221C7.49361 11.4084 7.56496 11.4154 7.6298 11.4423C7.69465 11.4691 7.75007 11.5146 7.78906 11.573C7.82805 11.6313 7.84887 11.6999 7.84887 11.7701C7.84878 11.8642 7.81137 11.9544 7.74484 12.021C7.6783 12.0875 7.58809 12.1249 7.494 12.125Z" fill="white"/>
</svg>
