<svg width="15" height="16" viewBox="0 0 15 16" fill="none" xmlns="http://www.w3.org/2000/svg">
<path d="M7.5 0.5C6.01664 0.5 4.56659 0.939867 3.33323 1.76398C2.09986 2.58809 1.13856 3.75943 0.570907 5.12987C0.00324956 6.50032 -0.145275 8.00832 0.144114 9.46318C0.433503 10.918 1.14781 12.2544 2.1967 13.3033C3.2456 14.3522 4.58197 15.0665 6.03682 15.3559C7.49168 15.6453 8.99968 15.4967 10.3701 14.9291C11.7406 14.3614 12.9119 13.4001 13.736 12.1668C14.5601 10.9334 15 9.48336 15 8C14.9979 6.01153 14.207 4.10511 12.801 2.69904C11.3949 1.29298 9.48847 0.502123 7.5 0.5ZM7.5 14.9385C6.1277 14.9385 4.78621 14.5316 3.64518 13.7692C2.50415 13.0067 1.61482 11.9231 1.08966 10.6552C0.564504 9.3874 0.427098 7.9923 0.694822 6.64636C0.962546 5.30043 1.62337 4.0641 2.59374 3.09374C3.56411 2.12337 4.80043 1.46254 6.14637 1.19482C7.4923 0.927095 8.8874 1.0645 10.1552 1.58966C11.4231 2.11482 12.5067 3.00414 13.2692 4.14517C14.0316 5.2862 14.4385 6.62769 14.4385 8C14.4364 9.83955 13.7047 11.6032 12.4039 12.9039C11.1032 14.2047 9.33955 14.9364 7.5 14.9385Z" fill="white"/>
<path d="M8.73167 10.7837H6.26847C6.0799 10.7839 5.89912 10.8589 5.76577 10.9922C5.63241 11.1255 5.55738 11.3063 5.55713 11.4949V12.1873C5.55734 12.3759 5.63235 12.5567 5.76571 12.69C5.89906 12.8234 6.07987 12.8984 6.26847 12.8986H8.73167C8.92027 12.8984 9.10107 12.8234 9.23443 12.69C9.36779 12.5567 9.4428 12.3759 9.44301 12.1873V11.4949C9.44276 11.3063 9.36772 11.1255 9.23437 10.9922C9.10102 10.8589 8.92024 10.7839 8.73167 10.7837ZM8.88151 12.1878C8.88147 12.2275 8.86567 12.2656 8.83758 12.2937C8.80949 12.3218 8.7714 12.3376 8.73167 12.3376H6.26847C6.22874 12.3376 6.19065 12.3218 6.16256 12.2937C6.13447 12.2656 6.11867 12.2275 6.11863 12.1878V11.4949C6.11871 11.4552 6.13453 11.4171 6.16262 11.3891C6.1907 11.361 6.22877 11.3452 6.26847 11.3452H8.73167C8.77137 11.3452 8.80944 11.361 8.83752 11.3891C8.86561 11.4171 8.88143 11.4552 8.88151 11.4949V12.1878Z" fill="white"/>
<path d="M7.99743 3.30604C7.86526 3.1752 7.6868 3.10181 7.50083 3.10181C7.31485 3.10181 7.13639 3.1752 7.00422 3.30604L4.16321 6.13358C4.06949 6.22692 4.00559 6.34597 3.97959 6.47565C3.95359 6.60534 3.96666 6.73982 4.01715 6.86207C4.06764 6.98432 4.15328 7.08883 4.26322 7.16237C4.37315 7.23592 4.50244 7.27518 4.6347 7.27518H5.55684V8.89422C5.55706 9.11719 5.64573 9.33097 5.80339 9.48863C5.96106 9.6463 6.17483 9.73497 6.39781 9.73518H8.60208C8.82506 9.73497 9.03883 9.6463 9.1965 9.48863C9.35416 9.33097 9.44283 9.11719 9.44305 8.89422V7.27518H10.3652C10.4975 7.27524 10.6268 7.23602 10.7368 7.16251C10.8468 7.08899 10.9325 6.98448 10.983 6.86222C11.0335 6.73995 11.0466 6.60544 11.0206 6.47573C10.9946 6.34601 10.9307 6.22693 10.837 6.13358L7.99743 3.30604ZM10.4646 6.64775C10.4572 6.66771 10.4436 6.68481 10.4259 6.69664C10.4081 6.70848 10.3871 6.71444 10.3658 6.71368H9.16262C9.08816 6.71368 9.01675 6.74326 8.9641 6.79591C8.91145 6.84856 8.88187 6.91997 8.88187 6.99443V8.89422C8.88183 8.96832 8.85237 9.03938 8.79997 9.09178C8.74757 9.14418 8.67651 9.17364 8.6024 9.17368H6.39813C6.32402 9.17364 6.25296 9.14418 6.20056 9.09178C6.14816 9.03938 6.1187 8.96832 6.11866 8.89422V6.99443C6.11862 6.91999 6.08903 6.8486 6.03638 6.79596C5.98374 6.74332 5.91236 6.71373 5.83791 6.71368H4.6347C4.61358 6.71375 4.59291 6.70753 4.57533 6.69582C4.55775 6.68411 4.54405 6.66743 4.53597 6.64792C4.52789 6.6284 4.52579 6.60692 4.52995 6.58621C4.5341 6.5655 4.54432 6.54649 4.5593 6.5316L7.39887 3.70406C7.42554 3.67754 7.46162 3.66265 7.49922 3.66265C7.53683 3.66265 7.57291 3.67754 7.59957 3.70406L10.4391 6.5316C10.4549 6.54595 10.4657 6.56486 10.4702 6.58569C10.4746 6.60651 10.4725 6.62821 10.464 6.64775H10.4646Z" fill="white"/>
</svg>
