<svg width="20" height="19" viewBox="0 0 20 19" fill="none" xmlns="http://www.w3.org/2000/svg">
<path d="M5.63337 4.03331L4.13337 2.54165L2.95837 3.71665L4.45004 5.20831L5.63337 4.03331ZM0.833374 8.74998H3.33337V10.4166H0.833374V8.74998ZM9.16671 0.458313H10.8334V2.91665H9.16671V0.458313ZM15.8667 2.53748L17.04 3.70998L15.5484 5.20165L14.3759 4.02831L15.8667 2.53748ZM14.3667 15.1333L15.8584 16.6333L17.0334 15.4583L15.5334 13.9666L14.3667 15.1333ZM16.6667 8.74998H19.1667V10.4166H16.6667V8.74998ZM10 4.58331C7.24171 4.58331 5.00004 6.82498 5.00004 9.58331C5.00004 12.3416 7.24171 14.5833 10 14.5833C12.7584 14.5833 15 12.3416 15 9.58331C15 6.82498 12.7584 4.58331 10 4.58331ZM10 12.9166C8.15837 12.9166 6.66671 11.425 6.66671 9.58331C6.66671 7.74165 8.15837 6.24998 10 6.24998C11.8417 6.24998 13.3334 7.74165 13.3334 9.58331C13.3334 11.425 11.8417 12.9166 10 12.9166ZM9.16671 16.25H10.8334V18.7083H9.16671V16.25ZM2.95837 15.45L4.13337 16.625L5.62504 15.125L4.45004 13.95L2.95837 15.45Z" fill="#0F1827"/>
</svg>
